<svg width="20" height="20" fill="none" stroke="currentColor" stroke-linecap="round" stroke-linejoin="round" stroke-width="1.5" viewBox="0 0 24 24" xmlns="http://www.w3.org/2000/svg">
   <path d="M13.143 5.218h-2.286A6.857 6.857 0 0 0 4 12.075v2.21a6.857 6.857 0 0 0 6.857 6.858h2.286A6.857 6.857 0 0 0 20 14.286v-2.211a6.857 6.857 0 0 0-6.857-6.857Z"></path>
   <path d="M7.392 3.997C6.382 3.267 5.005 3.187 4 4c-1.036.839-1.438 2.239-.94 3.393"></path>
   <path d="M16.535 4.05C17.552 3.27 18.971 3.167 20 4c1.036.839 1.438 2.24.94 3.394"></path>
   <path d="M12 8.571v4.572h4"></path>
   <path d="M5.714 19.429 3.43 21.714"></path>
   <path d="m18.286 19.429 2.285 2.285"></path>
</svg>