<svg width="19" height="19" fill="currentColor" viewBox="0 0 24 24" xmlns="http://www.w3.org/2000/svg">
   <path fill-rule="evenodd" d="M8.93 4.47a17.516 17.516 0 0 0-3.86 0 .666.666 0 0 0-.586.577 16.816 16.816 0 0 0 0 3.907.666.666 0 0 0 .587.576c1.271.142 2.587.142 3.858 0a.666.666 0 0 0 .587-.576c.152-1.298.152-2.61 0-3.908a.666.666 0 0 0-.587-.576ZM4.903 2.98a19.017 19.017 0 0 1 4.192 0c.99.11 1.793.89 1.91 1.892a18.322 18.322 0 0 1 0 4.256 2.166 2.166 0 0 1-1.91 1.893c-1.382.154-2.81.154-4.192 0a2.166 2.166 0 0 1-1.91-1.893 18.316 18.316 0 0 1 0-4.256 2.166 2.166 0 0 1 1.91-1.892Z" clip-rule="evenodd"></path>
   <path fill-rule="evenodd" d="M8.93 14.47a17.526 17.526 0 0 0-3.86 0 .666.666 0 0 0-.586.576 16.816 16.816 0 0 0 0 3.908.666.666 0 0 0 .587.576c1.271.142 2.587.142 3.858 0a.666.666 0 0 0 .587-.576c.152-1.298.152-2.61 0-3.908a.666.666 0 0 0-.587-.576Zm-4.026-1.49a19.023 19.023 0 0 1 4.192 0c.99.11 1.793.89 1.91 1.892a18.322 18.322 0 0 1 0 4.256 2.166 2.166 0 0 1-1.91 1.892c-1.382.155-2.81.155-4.192 0a2.166 2.166 0 0 1-1.91-1.892 18.316 18.316 0 0 1 0-4.256 2.166 2.166 0 0 1 1.91-1.892Z" clip-rule="evenodd"></path>
   <path fill-rule="evenodd" d="M18.93 4.47a17.517 17.517 0 0 0-3.86 0 .666.666 0 0 0-.586.577 16.817 16.817 0 0 0 0 3.907.666.666 0 0 0 .587.576c1.271.142 2.587.142 3.858 0a.666.666 0 0 0 .587-.576c.152-1.298.152-2.61 0-3.908a.666.666 0 0 0-.587-.576Zm-4.026-1.49a19.017 19.017 0 0 1 4.192 0c.99.11 1.793.89 1.91 1.892a18.322 18.322 0 0 1 0 4.256 2.166 2.166 0 0 1-1.91 1.893c-1.382.154-2.81.154-4.192 0a2.166 2.166 0 0 1-1.91-1.893 18.31 18.31 0 0 1 0-4.256 2.166 2.166 0 0 1 1.91-1.892Z" clip-rule="evenodd"></path>
   <path fill-rule="evenodd" d="M18.93 14.47a17.527 17.527 0 0 0-3.86 0 .666.666 0 0 0-.586.576 16.817 16.817 0 0 0 0 3.908.666.666 0 0 0 .587.576c1.271.142 2.587.142 3.858 0a.666.666 0 0 0 .587-.576c.152-1.298.152-2.61 0-3.908a.666.666 0 0 0-.587-.576Zm-4.026-1.49a19.023 19.023 0 0 1 4.192 0c.99.11 1.793.89 1.91 1.892a18.322 18.322 0 0 1 0 4.256 2.166 2.166 0 0 1-1.91 1.892c-1.382.155-2.81.155-4.192 0a2.166 2.166 0 0 1-1.91-1.892 18.31 18.31 0 0 1 0-4.256 2.166 2.166 0 0 1 1.91-1.892Z" clip-rule="evenodd"></path>
</svg>