<svg width="19" height="19" fill="currentColor" viewBox="0 0 24 24" xmlns="http://www.w3.org/2000/svg">
   <path d="M11.934 2.375a9.625 9.625 0 0 0-3.506 18.563 9.102 9.102 0 0 1 0-2.75l1.135-4.813A3.472 3.472 0 0 1 9.3 12c0-1.334.777-2.338 1.74-2.338a1.21 1.21 0 0 1 1.217 1.375c0 .532-.218 1.236-.446 1.974-.125.407-.254.825-.352 1.23a1.375 1.375 0 0 0 1.43 1.74c1.705 0 3.025-1.809 3.025-4.407a3.804 3.804 0 0 0-4.022-3.919 4.166 4.166 0 0 0-4.345 4.18 3.726 3.726 0 0 0 .688 2.193.303.303 0 0 1 .068.275c-.075.303-.24.963-.268 1.093-.027.13-.144.213-.323.13-1.203-.563-1.952-2.316-1.952-3.732 0-3.032 2.207-5.823 6.36-5.823 3.333 0 5.932 2.378 5.932 5.562 0 3.313-2.062 5.98-4.998 5.98a2.586 2.586 0 0 1-2.207-1.1l-.598 2.29a10.69 10.69 0 0 1-1.196 2.523 9.74 9.74 0 0 0 2.88.399 9.625 9.625 0 0 0 0-19.25Z"></path>
</svg>